inDegrees=no
num_controls=7
num_derivatives=13
num_iterations=148
num_multipliers=7
num_parameters=0
num_slacks=7
num_states=26
objective=0.446463
objective_accelerations=0.049602
objective_balance=0.007600
objective_effort=0.036860
objective_height=0.347544
objective_ligament=0.004856
solver_duration=2331.389860
status=Solve_Succeeded
success=true
DataType=double
version=3
OpenSimVersion=4.5
endheader
time	/jointset/ground_pelvis/pelvis_tilt/value	/jointset/ground_pelvis/pelvis_tx/value	/jointset/ground_pelvis/pelvis_ty/value	/jointset/hip_l/hip_flexion_l/value	/jointset/hip_l/hip_adduction_l/value	/jointset/hip_l/hip_rotation_l/value	/jointset/back/lumbar_extension/value	/jointset/patellofemoral_l/patellar_flexion_l/value	/jointset/knee_l/knee_flexion_l/value	/jointset/knee_l/knee_adduction_l/value	/jointset/knee_l/knee_rotation_l/value	/jointset/ankle_l/ankle_angle_l/value	/jointset/subtalar_l/subtalar_angle_l/value	/jointset/ground_pelvis/pelvis_tilt/speed	/jointset/ground_pelvis/pelvis_tx/speed	/jointset/ground_pelvis/pelvis_ty/speed	/jointset/hip_l/hip_flexion_l/speed	/jointset/hip_l/hip_adduction_l/speed	/jointset/hip_l/hip_rotation_l/speed	/jointset/back/lumbar_extension/speed	/jointset/patellofemoral_l/patellar_flexion_l/speed	/jointset/knee_l/knee_flexion_l/speed	/jointset/knee_l/knee_adduction_l/speed	/jointset/knee_l/knee_rotation_l/speed	/jointset/ankle_l/ankle_angle_l/speed	/jointset/subtalar_l/subtalar_angle_l/speed	/forceset/tau_hip_flexion_l	/forceset/tau_hip_adduction_l	/forceset/tau_hip_rotation_l	/forceset/tau_knee_flexion_l	/forceset/tau_ankle_angle_l	/forceset/tau_subtalar_angle_l	/forceset/tau_lumbar_extension	lambda_cid13_p0	lambda_cid13_p1	lambda_cid13_p2	lambda_cid13_p3	lambda_cid13_p4	lambda_cid13_p5	lambda_cid14_p0	/jointset/ground_pelvis/pelvis_tilt/accel	/jointset/ground_pelvis/pelvis_tx/accel	/jointset/ground_pelvis/pelvis_ty/accel	/jointset/hip_l/hip_flexion_l/accel	/jointset/hip_l/hip_adduction_l/accel	/jointset/hip_l/hip_rotation_l/accel	/jointset/back/lumbar_extension/accel	/jointset/patellofemoral_l/patellar_flexion_l/accel	/jointset/knee_l/knee_flexion_l/accel	/jointset/knee_l/knee_adduction_l/accel	/jointset/knee_l/knee_rotation_l/accel	/jointset/ankle_l/ankle_angle_l/accel	/jointset/subtalar_l/subtalar_angle_l/accel	gamma_cid13_p0	gamma_cid13_p1	gamma_cid13_p2	gamma_cid13_p3	gamma_cid13_p4	gamma_cid13_p5	gamma_cid14_p0
1	-0.657703640099222	-0.1313102218169779	0.5890336463661928	1.976507871898258	-0.2939930294622058	0.1446032699172202	-0.4363157791292583	1.220646464636669	1.220646464637315	-0.1745097711183557	0.1745270502824442	0.09846550968371631	-0.0261626481642377	-0.009309128358788167	0.0008321890395471239	-0.002482013676808162	0.01343615311844541	0.0006112330888448113	0.002506012418416448	0.0003541338431267598	0.006425784154954635	0.006425784154954105	1.150763382821563e-06	-2.192446132855892e-05	0.002801196208216879	0.001182190119361169	-0.4457123677007983	0.001098540922403947	-0.0176448989864693	-0.2554931990177584	0.139720282647246	0.02632403433534795	0.3578116380692091	-1.881365329480132	-10.9529217418592	1.172219857223867	8.202535816658648	-733.0239505080519	-43.63945102668843	-0.4737659178416274	1.910945178565979	0.2658590996584979	1.774247586826522	-6.538701126781732	-0.4112134378314672	-1.785031685478125	-0.03669404228430367	-4.81850542771797	-4.818505427717761	-0.04667319490402263	0.01289225907006051	-0.4735419174324785	-0.4889959243139546	1.604536693018079e-09	3.108057698228142e-09	-3.627280399399742e-09	-2.436338739615771e-09	1.955314909044966e-09	-7.304773704011158e-10	8.627787341046953e-10
1.01	-0.6577018891342066	-0.131288657988465	0.5890974124517824	1.976316250665198	-0.294006581561827	0.1445380686212661	-0.4363133098810064	1.220470069360703	1.220470069361044	-0.1745098258526844	0.1745268167246853	0.09847005962168755	-0.02617425029528605	0.009662210429007667	0.003482598455293934	0.01523199733591785	-0.05175582314489247	-0.003320584820438691	-0.01554390232083689	0.0001345931184703754	-0.04169779742520183	-0.04169779742520023	-1.335840281680708e-05	-2.194894865007372e-05	-0.001891880365452313	-0.003501575492411885	-0.4455254760375849	0.001124953794730821	-0.01765755211524939	-0.2554728385958491	0.1398019780579543	0.02633998775043712	0.3576883955428239	-1.842558005520412	-10.9683203572525	1.176588202576603	8.134389737193349	-732.856196038778	-43.66305920427187	-0.4761798735194687	1.890661195111559	0.2649355622248211	1.769491702847792	-6.508759911921658	-0.3840084883816876	-1.814620710180819	-0.01535249104058904	-4.808227066118359	-4.80822706611827	0.02096894508527255	-0.006030412572399909	-0.4672908744691461	-0.4579128895431639	-2.973772564385448e-09	-5.84089331066363e-09	2.568411988107818e-08	2.108314494051607e-09	-5.607773876593406e-09	2.514036295673988e-08	-5.775949951919153e-09
1.02	-0.657510338188064	-0.1312405293258562	0.5893382214163697	1.975472846862345	-0.2940594203447214	0.1442924383095139	-0.4363131897206869	1.219812649760345	1.21981264976038	-0.1745100639341592	0.1745266668000629	0.09842765872449544	-0.02623265928443896	0.02865086786580818	0.006145155858704526	0.03292656212275991	-0.116920360840704	-0.007246103565919376	-0.03357979074136404	-0.0001156837455553038	-0.08977908072351075	-0.08977908072351069	-3.551866648794909e-05	-5.197833536748467e-06	-0.006588970824520451	-0.008179181501551997	-0.4453385843743675	0.001151366667059879	-0.01767020524403599	-0.2554524781739366	0.1398836734686641	0.02635594116552907	0.3575651530164425	-1.809766810839667	-10.98247462550487	1.180540150487315	8.085522363725298	-732.7693589061735	-43.65123954620016	-0.4851901490387443	1.914408908366908	0.2682886971912583	1.770358341649734	-6.533213413276471	-0.4099536050709013	-1.78222642173289	-0.04284127015816326	-4.810045771348461	-4.810045771348987	-0.0482034143983217	0.01624737955702608	-0.4743446945122594	-0.487764003787362	-6.793824502565527e-09	-1.403636667691013e-08	5.460600785794666e-08	5.313042540189868e-09	-1.237677932707526e-08	4.987927922652729e-08	-1.214335583429249e-08
1.03	-0.6571288399087106	-0.1311656919422673	0.5897558308499343	1.973978035642353	-0.2941514298776978	0.1438665517213666	-0.4363155209831055	1.218674631650117	1.218674631650205	-0.1745105625152805	0.1745267573472928	0.0983381902361289	-0.02633776857676339	0.04764886033967536	0.008826545169073068	0.05058732673768353	-0.1820271123159894	-0.01114877390712799	-0.05159379791583871	-0.0003349256667173292	-0.1378172071595341	-0.1378172071595303	-6.287433980591565e-05	2.500042780458642e-05	-0.01131284445198645	-0.0128363659894357	-0.4450401659770252	0.001283453453071613	-0.0177067113919772	-0.2552704401288339	0.1398607632230121	0.02647020186949552	0.3574257269217931	-1.797152743778882	-11.0394809336456	1.195538700015633	8.022854647668634	-732.5239531667974	-43.70173243127963	-0.5010463859408659	1.892504029668361	0.2686994146124465	1.762731975027566	-6.497192071651289	-0.3793786246857611	-1.810443865750643	-0.00911919241309584	-4.799592215181075	-4.799592215180309	0.02018981687941599	-0.00336040294200102	-0.4726252014893784	-0.4537554360412374	-1.060613912116169e-08	-2.22241514957827e-08	8.35239212194722e-08	8.504097880332928e-09	-1.913768188638204e-08	7.460664525083151e-08	-1.850799311662857e-08
1.04	-0.6565573597820605	-0.1310639135922443	0.5903498072203711	1.971832599696212	-0.2942822570892937	0.1432606338613868	-0.4363195753725859	1.217056453048438	1.217056453048576	-0.1745112963609964	0.1745271965866616	0.09820123971056291	-0.02648926166691712	0.06664723732441043	0.01153334914553719	0.06819994949719012	-0.2470453060711435	-0.01500963928993494	-0.06958604510814756	-0.0004603091605919924	-0.1858111790136274	-0.1858111790136208	-8.257158600560375e-05	6.454059455869393e-05	-0.01608537826447574	-0.01745594106741363	-0.4447417475796759	0.001415540239087018	-0.01774321753991851	-0.255088402083729	0.1398378529773611	0.0265844625734663	0.3572863008271508	-1.790591111946966	-11.09528732907671	1.210185949458717	7.979317815203851	-732.3598946706301	-43.71735416436161	-0.5240660368181974	1.914485810540492	0.2733716304103709	1.76072997056633	-6.515501869250215	-0.401592613390559	-1.777874425299723	-0.02406958470063216	-4.801214854962463	-4.801214854963169	-0.04667172897465559	0.0181157606395667	-0.4840767315169212	-0.4802421218061981	-1.427526928229365e-08	-2.933766656127752e-08	1.115095871520134e-07	1.185578961751061e-08	-2.557369799999867e-08	9.781890758745302e-08	-2.448493236149982e-08
1.05	-0.6557958518548055	-0.1309349016050349	0.5911196333937598	1.969037441495944	-0.2944513980029069	0.142475025158028	-0.4363243677252006	1.214958577353017	1.214958577353	-0.1745122163805894	0.1745279923335578	0.09801629571584621	-0.02668667113748849	0.08565812514623947	0.01427706268136349	0.08575373786229687	-0.3119695940542943	-0.01880166153044927	-0.0875233077825045	-0.0004772507788373843	-0.2337544393392049	-0.2337544393392103	-9.778243263558256e-05	8.734729898763313e-05	-0.02091361377247094	-0.02200902450090502	-0.4442169240661504	0.00160615318175726	-0.01780728082665178	-0.2548537207190819	0.1399102069410847	0.02678734721508147	0.3570442275934191	-1.737938377085776	-11.20177227476176	1.237617474794824	7.854296225524449	-732.0136597173754	-43.81697769324392	-0.5548080385390344	1.894954822819547	0.2760764493072584	1.750964706921288	-6.478384020167364	-0.3654903645257943	-1.799819254914349	0.01263013720302457	-4.789447361457092	-4.78944736145854	0.02159045275667197	-0.00676002101452146	-0.4837240437657135	-0.4403129831430664	-1.793992492912986e-08	-3.64176106969793e-08	1.394661203523988e-07	1.521250124209561e-08	-3.199956141218748e-08	1.209838229338345e-07	-3.044975604270029e-08
1.06	-0.6548441221383668	-0.1307782114356396	0.5920646497382872	1.965593542064382	-0.2946579558059538	0.1415104104146434	-0.4363287021764548	1.21238155590632	1.212381555906149	-0.1745131812655959	0.1745287915182271	0.09778276394938475	-0.02692910574819928	0.1046915951606851	0.0170689855827196	0.103237983724958	-0.3767935523302397	-0.02249301717672112	-0.1053872531132876	-0.0003687288934999645	-0.2816403292688491	-0.2816403292688658	-9.154466871208391e-05	6.5228149053624e-05	-0.02580293261346141	-0.02646096909529467	-0.4436921005526306	0.00179676612442688	-0.01787134411338066	-0.2546190393544321	0.1399825609048101	0.02699023185669639	0.3568021543596806	-1.691403406367316	-11.30712508855202	1.264798987890346	7.748156676380751	-731.7495456087624	-43.88292585690596	-0.5939016100935434	1.91900224906382	0.2830135035163252	1.746821470077215	-6.495435927809158	-0.3814592945420504	-1.763210956584947	0.001023116016086768	-4.789740775775808	-4.789740775776375	-0.04238200686394485	0.009130589766957263	-0.4962933981159887	-0.4600143539858401	-2.110616533515371e-08	-4.478691183877523e-08	1.649956855295637e-07	1.659047810868233e-08	-3.78063289574394e-08	1.427589559857837e-07	-3.639166763370571e-08
